<svg xmlns="http://www.w3.org/2000/svg" width="15.64" height="8.914" viewBox="0 0 15.64 8.914">
  <g id="Group_526" data-name="Group 526" transform="translate(-4821.846 -694.988)" opacity="0.7">
    <g id="Group_525" data-name="Group 525">
      <path id="Path_506" data-name="Path 506" d="M4821.846,695.93a1.25,1.25,0,0,1,.418-.706,1.087,1.087,0,0,1,1.343-.007,2.617,2.617,0,0,1,.215.2l5.7,5.7a1.187,1.187,0,0,0,.183.173.687.687,0,0,1,.092-.16q2.875-2.882,5.755-5.759a1.108,1.108,0,0,1,1.2-.321,1.092,1.092,0,0,1,.521,1.678,1.7,1.7,0,0,1-.161.183q-3.3,3.308-6.61,6.611a1.09,1.09,0,0,1-1.388.223,1.59,1.59,0,0,1-.3-.251q-3.222-3.217-6.441-6.435a1.65,1.65,0,0,1-.521-.823Z"/>
    </g>
  </g>
</svg>
