<svg xmlns="http://www.w3.org/2000/svg" width="138.246" height="133.269" viewBox="0 0 138.246 133.269">
  <g id="Group_259" data-name="Group 259" transform="translate(-12106.674 -2684.385)">
    <path id="Path_286" data-name="Path 286" d="M12163.517,2764.659c-6.659-4.6-9.009-11.664-10.8-19.028a31.992,31.992,0,0,1-.962-5.583c-.064-1.053-.58-1.368-1.6-1.348a14.015,14.015,0,0,1-4.126-.24,6.461,6.461,0,0,1-4.75-5.931c-.023-.924.067-1.855-.021-2.771a8.023,8.023,0,0,1,2.5-7.1c1.017-1.431,2.547-1.622,4.111-1.646,2.821-.043,2.965.28,2.786-2.9a12.2,12.2,0,0,1,2.14-7.828c1.661-2.468,3.073-5.107,4.58-7.68a3.017,3.017,0,0,1,2.87-1.665q15.577.03,31.154,0a3.044,3.044,0,0,1,2.871,1.666c2.011,3.349,3.939,6.747,5.966,10.088a4.951,4.951,0,0,1,.711,2.642c0,1.183,0,2.365,0,3.548.014,2.037.074,2.1,2.052,2.12a10.62,10.62,0,0,1,1.848.071c1.168.219,2.34.455,3.032,1.59,3.591,3.428,2.76,7.706,2.036,11.812-.435,2.472-3.232,4.172-5.97,4.25-3.868.111-3.738.135-4.418,3.908a47.832,47.832,0,0,1-5.053,15.228,23.551,23.551,0,0,1-6.347,6.8c-1.618,1.9-3.922,2.576-6.164,3.217a21.589,21.589,0,0,1-17.213-2.125A2.655,2.655,0,0,1,12163.517,2764.659Z" fill="#fcc8a5"/>
    <path id="Path_287" data-name="Path 287" d="M12207.893,2722.659a9.71,9.71,0,0,0-6.07-1.2c-.924.069-1.488-.106-1.315-1.211.709-4.531-.791-8.412-3.392-12.045a58.631,58.631,0,0,1-3.375-5.693,1.793,1.793,0,0,0-1.8-1.086q-16.112.056-32.224,0a1.811,1.811,0,0,0-1.8,1.087q-3.075,5.337-6.249,10.617a3.629,3.629,0,0,0-.536,2.033c.035,1.592-.061,3.19.034,4.778.07,1.168-.221,1.666-1.489,1.53a9.173,9.173,0,0,0-5.916,1.191c0-5.5-.072-11,.011-16.492a16.749,16.749,0,0,1,4.482-11.339,55.119,55.119,0,0,1,7.072-6.856,16.947,16.947,0,0,1,10.3-3.526c4.675-.056,9.354-.1,14.026,0a17.413,17.413,0,0,1,15.294,8.783,1.975,1.975,0,0,0,1.762,1.137,13.325,13.325,0,0,1,7.71,3.139,8.693,8.693,0,0,1,3.55,7.433C12207.763,2710.836,12207.9,2716.75,12207.893,2722.659Z" fill="#55300b"/>
    <path id="Path_288" data-name="Path 288" d="M12119.066,2817.654h-12.393c.513-3.2.848-6.317,1.538-9.357a17.233,17.233,0,0,1,9.321-11.981c8.579-4.367,17.227-8.6,25.846-12.885.549-.282.9.031,1.118.456,1.507,2.88,3.015,5.761,4.334,8.735a.985.985,0,0,1-.016.745c-.745,1.035-1.97,1.251-3.036,1.683-1.141.461-1.4,1.045-.989,2.227,2.1,6.1,4.1,12.224,6.127,18.344.213.643.7,1.3.222,2.032h-27.145a2.516,2.516,0,0,1-.448-1.9c-.018-2.208,0-4.416-.008-6.625a6.892,6.892,0,0,0-.1-1.534,1.92,1.92,0,0,0-3.81,0,10.879,10.879,0,0,0-.1,2.3c-.007,1.952.01,3.9-.01,5.855A2.519,2.519,0,0,1,12119.066,2817.654Z" fill="#48351b"/>
    <path id="Path_289" data-name="Path 289" d="M12227.666,2817.654h-27.137a2.92,2.92,0,0,1,.324-2.068q3.012-9.031,6.014-18.066c.592-1.77.558-1.733-1.09-2.535-1-.484-2.191-.625-2.924-1.6a1.912,1.912,0,0,1,.309-1.6c1.222-2.465,2.438-4.933,3.7-7.376.283-.546.487-1.334,1.427-.989q10.116,5.008,20.231,10.018,2.477,1.228,4.944,2.479a18.618,18.618,0,0,1,10.514,14.933l.939,6.8h-12.325a2.515,2.515,0,0,1-.447-1.9c-.019-2.208,0-4.416-.01-6.625a6.833,6.833,0,0,0-.1-1.534,1.921,1.921,0,0,0-3.812,0,10.879,10.879,0,0,0-.1,2.3c-.007,1.952.009,3.9-.009,5.855A2.52,2.52,0,0,1,12227.666,2817.654Z" fill="#48351b"/>
    <path id="Path_290" data-name="Path 290" d="M12190.639,2817.654h-29.617a2.205,2.205,0,0,1-.488-1.725c.007-9.228-.075-18.457.035-27.684,0-2.332-.133-4.668.088-7,.181-.687.571-.78,1.129-.386a9.2,9.2,0,0,1,1.134,1.042q5.728,5.724,11.451,11.449c1.457,1.456,1.462,1.457,2.877.043q5.782-5.777,11.561-11.557a7.244,7.244,0,0,1,1.146-1.028c.516-.334.864-.208,1.033.394a67.381,67.381,0,0,1,.107,7.008c.1,9.239.031,18.476.034,27.713A2.209,2.209,0,0,1,12190.639,2817.654Z" fill="#026ca1"/>
    <path id="Path_291" data-name="Path 291" d="M12190.555,2780.743c-4.576,4.557-9.175,9.092-13.707,13.693-.817.831-1.231.8-2.036-.011-4.532-4.6-9.131-9.134-13.705-13.692a.608.608,0,0,1-.178-.689,43.029,43.029,0,0,1,2.237-6.431c.725-1.293.095-2.709.367-4.043.847-.205,1.465.335,2.133.679a21.146,21.146,0,0,0,20.615-.113c.578-.3,1.109-.774,1.847-.566q.029,2.016.058,4.032a1.69,1.69,0,0,1,.818,1.058c.563,1.642,1.116,3.285,1.627,4.943C12190.746,2779.974,12190.93,2780.388,12190.555,2780.743Z" fill="#fcc8a5"/>
    <path id="Path_292" data-name="Path 292" d="M12190.639,2817.654q.026-14.777.051-29.552a1.53,1.53,0,0,1,1.334.126c3.345,1.445,6.7,2.866,10.043,4.323a1.8,1.8,0,0,1,.915.781c1.318.561,2.631,1.137,3.959,1.678.736.3.99.659.7,1.522-2.4,7.03-4.746,14.078-7.107,21.121Z" fill="#6e5129"/>
    <path id="Path_293" data-name="Path 293" d="M12160.972,2788.1q.025,14.776.05,29.553h-9.883c-2.3-6.94-4.579-13.886-6.914-20.814-.332-.986-.359-1.526.814-1.892a32.241,32.241,0,0,0,3.642-1.614c1.342-1.287,3.166-1.609,4.768-2.374,1.938-.926,3.935-1.72,5.912-2.558A2.092,2.092,0,0,1,12160.972,2788.1Z" fill="#6e5129"/>
    <path id="Path_294" data-name="Path 294" d="M12160.972,2788.1l-12.291,5.232c-1.284-3.26-3.065-6.279-4.573-9.43a.865.865,0,0,0-.729-.472,40.12,40.12,0,0,1,5.253-2.768c4.362-2.212,8.746-4.383,13.123-6.563.447-.222.849-.592,1.411-.487-.163,1.95-1.137,3.664-1.612,5.523-.137.535-.3,1.065-.448,1.6Q12161.038,2784.417,12160.972,2788.1Z" fill="#5f4623"/>
    <path id="Path_295" data-name="Path 295" d="M12202.981,2793.332l-12.292-5.23q-.067-3.68-.134-7.359a65.336,65.336,0,0,0-2.37-7.141,2.2,2.2,0,0,1,1.319.271q9.088,4.56,18.186,9.1a4.139,4.139,0,0,1,.6.453.873.873,0,0,0-.732.468C12206.048,2787.048,12204.266,2790.069,12202.981,2793.332Z" fill="#5f4623"/>
    <path id="Path_296" data-name="Path 296" d="M12188.128,2769.57a22.631,22.631,0,0,1-12.757,3.7,23.35,23.35,0,0,1-11.839-3.7q-.007-2.455-.016-4.911a27.324,27.324,0,0,0,9.577,3.476,21.934,21.934,0,0,0,13.3-2.514c.588-.308,1.163-.64,1.744-.961Q12188.134,2767.114,12188.128,2769.57Z" fill="#e5ae88"/>
    <path id="Path_297" data-name="Path 297" d="M12119.066,2817.654c0-3.17-.016-6.341,0-9.512.009-1.79.974-2.819,2.54-2.775,1.49.041,2.378,1.045,2.386,2.775.016,3.171,0,6.342,0,9.512Z" fill="#332613"/>
    <path id="Path_298" data-name="Path 298" d="M12227.666,2817.654c0-3.17-.015-6.341,0-9.512.009-1.79.974-2.819,2.54-2.775,1.492.041,2.379,1.045,2.387,2.775.016,3.171,0,6.342,0,9.512Z" fill="#332613"/>
    <path id="Path_299" data-name="Path 299" d="M12170.895,2737.391c0-.976,0-1.952,0-2.928.008-2.1.857-3.165,2.508-3.142,1.592.023,2.42,1.066,2.428,3.067,0,1.028.044,2.057-.011,3.081-.05.907.233,1.361,1.21,1.263a7.541,7.541,0,0,1,1.539.007,2.362,2.362,0,0,1,2.19,2.513,2.225,2.225,0,0,1-2.161,2.368,41.689,41.689,0,0,1-5.542,0,2.216,2.216,0,0,1-2.149-2.376C12170.863,2739.96,12170.9,2738.675,12170.895,2737.391Z" fill="#e5ae88"/>
    <path id="Path_300" data-name="Path 300" d="M12175.758,2753.532c-1.589,0-3.179.028-4.768-.008a2.46,2.46,0,1,1-.009-4.917q4.843-.049,9.688,0a2.461,2.461,0,1,1,.009,4.918C12179.039,2753.56,12177.4,2753.532,12175.758,2753.532Z" fill="#e5ae88"/>
    <path id="Path_301" data-name="Path 301" d="M12164.685,2723.911c-1.177,0-2.355.034-3.531-.008a2.451,2.451,0,0,1-2.589-2.457,2.426,2.426,0,0,1,2.586-2.454c2.4-.043,4.812-.048,7.217,0a2.453,2.453,0,1,1,0,4.9C12167.144,2723.95,12165.914,2723.91,12164.685,2723.911Z" fill="#55300b"/>
    <path id="Path_302" data-name="Path 302" d="M12186.977,2723.912c-1.229,0-2.459.039-3.685-.012a2.443,2.443,0,0,1-2.515-2.529,2.413,2.413,0,0,1,2.508-2.375c2.457-.049,4.916-.055,7.371,0a2.4,2.4,0,0,1,2.439,2.442,2.468,2.468,0,0,1-2.433,2.465c-.1.009-.205.007-.307.007Q12188.667,2723.914,12186.977,2723.912Z" fill="#55300b"/>
    <path id="Path_303" data-name="Path 303" d="M12168.415,2729.488a3.075,3.075,0,1,1-2.977-3.1A3.1,3.1,0,0,1,12168.415,2729.488Z" fill="#55300c"/>
    <path id="Path_304" data-name="Path 304" d="M12189.395,2729.417a3.076,3.076,0,1,1-3.048-3.025A3.1,3.1,0,0,1,12189.395,2729.417Z" fill="#55300c"/>
  </g>
</svg>
