<svg xmlns="http://www.w3.org/2000/svg" width="30" height="22.503" viewBox="0 0 30 22.503">
  <g id="Group_263" data-name="Group 263" transform="translate(-9032.479 -4086.355)">
    <g id="Group_262" data-name="Group 262">
      <path id="Path_307" data-name="Path 307" d="M9062.479,4090.459v16.172a1.112,1.112,0,0,0-.045.136,2.482,2.482,0,0,1-2.55,2.088q-12.406.006-24.812-.009a2.856,2.856,0,0,1-1.184-.264,2.407,2.407,0,0,1-1.407-2.342q-.007-7.719,0-15.438a1.539,1.539,0,0,1,.01-.233.619.619,0,0,1,.954-.446,1.829,1.829,0,0,1,.23.18q4.68,3.992,9.358,7.985c.994.849,1.969,1.723,2.978,2.555a2.287,2.287,0,0,0,1.731.476,3.2,3.2,0,0,0,1.779-.929q5.878-5.048,11.764-10.085C9061.789,4089.872,9062.117,4089.919,9062.479,4090.459Z" fill="#8a8a8a"/>
      <path id="Path_308" data-name="Path 308" d="M9047.479,4086.358q6.182,0,12.363,0a2.553,2.553,0,0,1,1.924.771c.428.439.405.786-.063,1.185-2.046,1.739-4.1,3.472-6.136,5.219q-3.538,3.03-7.057,6.08a1.315,1.315,0,0,1-2.061,0q-6.584-5.641-13.171-11.279c-.5-.43-.521-.783-.046-1.247a2.567,2.567,0,0,1,1.884-.729Q9041.3,4086.363,9047.479,4086.358Z" fill="#8a8a8a"/>
    </g>
  </g>
</svg>
