<svg xmlns="http://www.w3.org/2000/svg" xmlns:xlink="http://www.w3.org/1999/xlink" width="257.836" height="257.836" viewBox="0 0 257.836 257.836">
  <defs>
    <filter id="Ellipse_18" x="0" y="0" width="257.836" height="257.836" filterUnits="userSpaceOnUse">
      <feOffset input="SourceAlpha"/>
      <feGaussianBlur stdDeviation="5" result="blur"/>
      <feFlood flood-opacity="0.051"/>
      <feComposite operator="in" in2="blur"/>
      <feComposite in="SourceGraphic"/>
    </filter>
  </defs>
  <g id="Group_550" data-name="Group 550" transform="translate(-5545.875 -1353.403)">
    <g transform="matrix(1, 0, 0, 1, 5545.87, 1353.4)" filter="url(#Ellipse_18)">
      <circle id="Ellipse_18-2" data-name="Ellipse 18" cx="113.918" cy="113.918" r="113.918" transform="translate(15 15)" fill="#fff"/>
    </g>
    <g id="Group_549" data-name="Group 549">
      <path id="Path_572" data-name="Path 572" d="M5662.513,1495.96c-6.661-4.6-9.009-11.664-10.8-19.028a31.924,31.924,0,0,1-.963-5.583c-.065-1.053-.58-1.367-1.6-1.348a13.986,13.986,0,0,1-4.126-.24,6.46,6.46,0,0,1-4.749-5.931c-.024-.923.067-1.855-.021-2.77a8.025,8.025,0,0,1,2.505-7.1c1.016-1.431,2.546-1.622,4.111-1.646,2.822-.043,2.966.281,2.787-2.9a12.192,12.192,0,0,1,2.14-7.828c1.66-2.467,3.073-5.107,4.579-7.68a3.02,3.02,0,0,1,2.871-1.665q15.576.03,31.153,0a3.047,3.047,0,0,1,2.871,1.666c2.011,3.35,3.94,6.748,5.966,10.088a4.968,4.968,0,0,1,.712,2.643c0,1.182,0,2.364,0,3.547.014,2.037.074,2.1,2.052,2.12a10.652,10.652,0,0,1,1.848.071c1.167.219,2.34.455,3.033,1.59,3.59,3.428,2.758,7.706,2.035,11.813-.434,2.471-3.232,4.171-5.969,4.25-3.869.11-3.739.134-4.419,3.908a47.813,47.813,0,0,1-5.052,15.227,23.577,23.577,0,0,1-6.347,6.8c-1.619,1.9-3.922,2.577-6.164,3.217a21.588,21.588,0,0,1-17.213-2.125A2.65,2.65,0,0,1,5662.513,1495.96Z" fill="#fcc8a5"/>
      <path id="Path_573" data-name="Path 573" d="M5706.889,1453.96a9.721,9.721,0,0,0-6.072-1.2c-.924.07-1.487-.106-1.314-1.211.709-4.53-.792-8.412-3.393-12.045a58.746,58.746,0,0,1-3.375-5.693,1.793,1.793,0,0,0-1.8-1.086q-16.112.055-32.223,0a1.812,1.812,0,0,0-1.8,1.087q-3.075,5.339-6.248,10.617a3.623,3.623,0,0,0-.537,2.033c.035,1.592-.061,3.19.034,4.778.07,1.168-.221,1.666-1.488,1.53a9.181,9.181,0,0,0-5.917,1.191c0-5.5-.073-11,.01-16.492a16.752,16.752,0,0,1,4.483-11.339,55.225,55.225,0,0,1,7.072-6.856,16.953,16.953,0,0,1,10.3-3.526c4.675-.056,9.353-.1,14.026,0a17.41,17.41,0,0,1,15.294,8.783,1.975,1.975,0,0,0,1.762,1.136,13.34,13.34,0,0,1,7.71,3.139,8.694,8.694,0,0,1,3.55,7.433C5706.758,1442.138,5706.9,1448.052,5706.889,1453.96Z" fill="#55300b"/>
      <path id="Path_574" data-name="Path 574" d="M5618.061,1548.956h-12.392c.513-3.2.847-6.318,1.538-9.358a17.235,17.235,0,0,1,9.322-11.981c8.578-4.367,17.226-8.6,25.845-12.884.549-.282.9.031,1.118.455,1.507,2.88,3.015,5.761,4.335,8.735a.988.988,0,0,1-.017.745c-.745,1.035-1.968,1.251-3.036,1.683-1.14.461-1.4,1.045-.989,2.227,2.1,6.1,4.1,12.224,6.128,18.344.213.643.7,1.3.221,2.032l-27.145,0a2.517,2.517,0,0,1-.447-1.9c-.018-2.209,0-4.417-.009-6.626a6.921,6.921,0,0,0-.1-1.534,1.921,1.921,0,0,0-3.811,0,10.953,10.953,0,0,0-.1,2.305c-.006,1.951.01,3.9-.008,5.855A2.52,2.52,0,0,1,5618.061,1548.956Z" fill="#48351b"/>
      <path id="Path_575" data-name="Path 575" d="M5726.661,1548.956l-27.137,0a2.919,2.919,0,0,1,.326-2.068q3.009-9.031,6.013-18.065c.592-1.77.557-1.734-1.091-2.536-1-.484-2.19-.625-2.922-1.6a1.909,1.909,0,0,1,.307-1.6c1.222-2.465,2.439-4.933,3.7-7.376.282-.546.488-1.333,1.427-.988q10.114,5.007,20.23,10.017,2.479,1.228,4.946,2.48a18.615,18.615,0,0,1,10.512,14.932c.309,2.233.618,4.466.94,6.8H5731.59a2.522,2.522,0,0,1-.448-1.9c-.018-2.209,0-4.417-.008-6.626a6.922,6.922,0,0,0-.1-1.534,1.92,1.92,0,0,0-3.81,0,10.888,10.888,0,0,0-.1,2.305c-.007,1.951.009,3.9-.009,5.855A2.518,2.518,0,0,1,5726.661,1548.956Z" fill="#48351b"/>
      <path id="Path_576" data-name="Path 576" d="M5689.635,1548.955h-29.619a2.206,2.206,0,0,1-.488-1.725c.007-9.228-.074-18.456.035-27.683,0-2.333-.132-4.669.088-7,.181-.688.572-.781,1.129-.386a9.089,9.089,0,0,1,1.134,1.042q5.727,5.722,11.451,11.449c1.457,1.456,1.462,1.456,2.877.043q5.782-5.778,11.561-11.558a7.288,7.288,0,0,1,1.145-1.028c.516-.334.864-.207,1.033.394a67.116,67.116,0,0,1,.108,7.008c.1,9.239.032,18.476.034,27.714A2.2,2.2,0,0,1,5689.635,1548.955Z" fill="#026ca1"/>
      <path id="Path_577" data-name="Path 577" d="M5689.551,1512.044c-4.576,4.558-9.176,9.092-13.707,13.693-.819.831-1.233.8-2.036-.011-4.534-4.6-9.131-9.134-13.707-13.691a.61.61,0,0,1-.177-.69,42.978,42.978,0,0,1,2.238-6.43c.725-1.294.094-2.71.366-4.044.848-.2,1.466.336,2.133.68a21.148,21.148,0,0,0,20.615-.114c.578-.3,1.11-.774,1.847-.566q.03,2.016.058,4.032a1.694,1.694,0,0,1,.819,1.059c.561,1.641,1.115,3.285,1.626,4.942C5689.741,1511.275,5689.925,1511.689,5689.551,1512.044Z" fill="#fcc8a5"/>
      <path id="Path_578" data-name="Path 578" d="M5689.635,1548.955q.024-14.775.049-29.552a1.53,1.53,0,0,1,1.334.126c3.346,1.446,6.7,2.866,10.043,4.323a1.794,1.794,0,0,1,.915.781c1.319.562,2.631,1.138,3.959,1.678.738.3.991.659.7,1.522-2.4,7.03-4.746,14.079-7.108,21.121Z" fill="#6e5129"/>
      <path id="Path_579" data-name="Path 579" d="M5659.967,1519.4q.024,14.777.049,29.553h-9.882c-2.3-6.94-4.579-13.886-6.913-20.814-.333-.986-.36-1.525.813-1.891a32.368,32.368,0,0,0,3.642-1.615c1.341-1.287,3.166-1.609,4.768-2.374,1.937-.926,3.934-1.719,5.911-2.558A2.1,2.1,0,0,1,5659.967,1519.4Z" fill="#6e5129"/>
      <path id="Path_580" data-name="Path 580" d="M5659.967,1519.4l-12.291,5.232c-1.285-3.26-3.066-6.278-4.574-9.43a.862.862,0,0,0-.728-.471,39.991,39.991,0,0,1,5.254-2.769c4.362-2.212,8.745-4.382,13.123-6.563.446-.222.848-.592,1.411-.486-.164,1.95-1.138,3.663-1.613,5.522-.137.536-.3,1.065-.449,1.6Q5660.034,1515.718,5659.967,1519.4Z" fill="#5f4623"/>
      <path id="Path_581" data-name="Path 581" d="M5701.976,1524.633l-12.292-5.23q-.066-3.68-.133-7.359a65.231,65.231,0,0,0-2.37-7.141,2.212,2.212,0,0,1,1.319.271q9.089,4.56,18.185,9.1a4.055,4.055,0,0,1,.6.453.869.869,0,0,0-.733.468C5705.043,1518.349,5703.261,1521.371,5701.976,1524.633Z" fill="#5f4623"/>
      <path id="Path_582" data-name="Path 582" d="M5687.123,1500.871a22.63,22.63,0,0,1-12.756,3.7,23.339,23.339,0,0,1-11.839-3.7q-.007-2.455-.016-4.911a27.319,27.319,0,0,0,9.577,3.477,21.944,21.944,0,0,0,13.3-2.514c.588-.309,1.164-.641,1.746-.962Q5687.13,1498.417,5687.123,1500.871Z" fill="#e5ae88"/>
      <path id="Path_583" data-name="Path 583" d="M5618.061,1548.956c0-3.171-.015-6.342,0-9.512.009-1.791.974-2.819,2.54-2.776,1.491.042,2.378,1.046,2.387,2.776.015,3.17,0,6.341,0,9.512Z" fill="#332613"/>
      <path id="Path_584" data-name="Path 584" d="M5726.661,1548.956c0-3.171-.015-6.342,0-9.512.009-1.791.974-2.819,2.54-2.776,1.491.042,2.378,1.046,2.386,2.776.015,3.17,0,6.341,0,9.512Z" fill="#332613"/>
      <path id="Path_585" data-name="Path 585" d="M5669.89,1468.692c0-.975,0-1.951,0-2.927.006-2.1.857-3.166,2.507-3.142,1.591.022,2.419,1.065,2.428,3.067,0,1.027.043,2.056-.012,3.081-.049.907.234,1.361,1.21,1.263a7.532,7.532,0,0,1,1.539.006,2.363,2.363,0,0,1,2.191,2.514,2.224,2.224,0,0,1-2.16,2.367,41.539,41.539,0,0,1-5.543,0,2.216,2.216,0,0,1-2.15-2.376C5669.859,1471.262,5669.891,1469.977,5669.89,1468.692Z" fill="#e5ae88"/>
      <path id="Path_586" data-name="Path 586" d="M5674.753,1484.833c-1.589,0-3.179.028-4.767-.008a2.46,2.46,0,1,1-.01-4.917q4.845-.049,9.689,0a2.46,2.46,0,1,1,.009,4.917C5678.035,1484.862,5676.394,1484.833,5674.753,1484.833Z" fill="#e5ae88"/>
      <path id="Path_587" data-name="Path 587" d="M5663.68,1455.212c-1.177,0-2.356.034-3.532-.008a2.459,2.459,0,1,1,0-4.911c2.4-.042,4.813-.048,7.218,0a2.453,2.453,0,1,1,0,4.9C5666.139,1455.252,5664.909,1455.211,5663.68,1455.212Z" fill="#55300b"/>
      <path id="Path_588" data-name="Path 588" d="M5685.972,1455.213c-1.228,0-2.459.04-3.685-.012a2.442,2.442,0,0,1-2.514-2.529,2.414,2.414,0,0,1,2.508-2.375c2.456-.049,4.915-.055,7.371,0a2.4,2.4,0,0,1,2.439,2.442,2.467,2.467,0,0,1-2.433,2.465c-.1.009-.205.007-.307.007Q5687.662,1455.215,5685.972,1455.213Z" fill="#55300b"/>
      <path id="Path_589" data-name="Path 589" d="M5667.411,1460.79a3.076,3.076,0,1,1-2.978-3.1A3.108,3.108,0,0,1,5667.411,1460.79Z" fill="#55300c"/>
      <path id="Path_590" data-name="Path 590" d="M5688.39,1460.719a3.075,3.075,0,1,1-3.048-3.026A3.1,3.1,0,0,1,5688.39,1460.719Z" fill="#55300c"/>
    </g>
  </g>
</svg>
