<svg xmlns="http://www.w3.org/2000/svg" width="105.868" height="97.025" viewBox="0 0 105.868 97.025">
  <g id="Group_220" data-name="Group 220" transform="translate(-11336.666 -3186.232)" opacity="0.5">
    <path id="Path_259" data-name="Path 259" d="M11336.666,3253.64q2.895-9.676,5.79-19.354,2.367-7.906,4.742-15.81a1.454,1.454,0,0,1,.476-.8v1.081c0,9.232-.065,18.465.023,27.7a16.4,16.4,0,0,0,8.781,15,16.717,16.717,0,0,0,8.447,1.967q30.9-.035,61.8-.012h1.513c-.112.405-.189.714-.284,1.018q-1.834,5.858-3.676,11.713a9.859,9.859,0,0,1-12.307,6.732q-25.066-6.7-50.126-13.421c-5.713-1.53-11.42-3.085-17.141-4.585a10.035,10.035,0,0,1-7.873-8.088c-.019-.089-.109-.163-.167-.244Z"/>
    <path id="Path_260" data-name="Path 260" d="M11398.365,3256.793q-16.283,0-32.566,0c-5.674-.007-10-3.345-11.205-8.654a13.66,13.66,0,0,1-.29-2.973q-.026-23.624-.01-47.246c0-6.97,4.717-11.681,11.669-11.682q32.464,0,64.925,0c6.92,0,11.641,4.694,11.643,11.588q.007,23.725,0,47.453c0,6.791-4.7,11.5-11.5,11.513Q11414.7,3256.815,11398.365,3256.793Zm35.233-28.353a5.822,5.822,0,0,0,.09-.611q0-15.194-.006-30.387c0-1.616-.847-2.366-2.584-2.366q-32.659-.006-65.32,0c-1.874,0-2.644.773-2.645,2.636q0,20.051,0,40.1c0,.284.04.568.062.853l.23.11a10.35,10.35,0,0,1,.716-.886q5.474-5.489,10.96-10.965a7.681,7.681,0,0,1,7.559-2.221,7.93,7.93,0,0,1,3.929,2.357c1.624,1.668,3.257,3.326,4.936,5.038.424-.5.716-.833,1-1.175q7.472-8.971,14.945-17.945c3.726-4.469,8.94-4.533,12.741-.155,1.039,1.2,2.063,2.406,3.094,3.609Z"/>
    <path id="Path_261" data-name="Path 261" d="M11376.323,3217.084a8.808,8.808,0,1,1,8.869-8.734A8.834,8.834,0,0,1,11376.323,3217.084Z"/>
  </g>
</svg>
