<svg xmlns="http://www.w3.org/2000/svg" width="30" height="34.138" viewBox="0 0 30 34.138">
  <g id="Group_261" data-name="Group 261" transform="translate(-9032.488 -3881.21)">
    <g id="Group_260" data-name="Group 260">
      <path id="Path_305" data-name="Path 305" d="M9048.149,3881.21c.793.149,1.6.241,2.376.457a11.05,11.05,0,0,1,7.681,8.191,10.765,10.765,0,0,1-1.395,8.22c-1.126,1.81-2.295,3.592-3.443,5.388-.052.082-.1.169-.169.293.351.065.675.12,1,.185a19.637,19.637,0,0,1,5.481,1.792,5.587,5.587,0,0,1,2.37,2.082,2.924,2.924,0,0,1-.205,3.374,6.3,6.3,0,0,1-2.387,1.874,20.4,20.4,0,0,1-6.066,1.809,37.517,37.517,0,0,1-10,.254,24.059,24.059,0,0,1-7.342-1.794,7.321,7.321,0,0,1-2.738-1.9,3.11,3.11,0,0,1,.244-4.456,9.155,9.155,0,0,1,3.146-1.893,24.3,24.3,0,0,1,4.783-1.271c.084-.014.166-.039.283-.067-.081-.131-.145-.232-.209-.332-1.143-1.786-2.309-3.558-3.424-5.361a10.506,10.506,0,0,1-1.487-7.57,10.9,10.9,0,0,1,6.535-8.377,9.744,9.744,0,0,1,3.374-.843,2.143,2.143,0,0,0,.258-.052Zm-.666,27.748c.085-.125.153-.221.217-.32q3.6-5.643,7.206-11.283a8.774,8.774,0,0,0,.574-9.171,8.505,8.505,0,0,0-7.1-4.9,8.652,8.652,0,0,0-8.185,3.7,9.033,9.033,0,0,0-.354,10.037q3.718,5.826,7.441,11.646C9047.339,3908.755,9047.4,3908.842,9047.483,3908.958Zm-.014,4.315c.754,0,1.512.034,2.264-.006a26.449,26.449,0,0,0,7.119-1.269,8.479,8.479,0,0,0,3.013-1.586,1.224,1.224,0,0,0,.043-2.088,6.869,6.869,0,0,0-2.183-1.315,21.369,21.369,0,0,0-5.541-1.357.43.43,0,0,0-.319.19c-.466.7-.914,1.417-1.367,2.129-.7,1.094-1.4,2.188-2.091,3.286a1.038,1.038,0,0,1-1.111.557,1.113,1.113,0,0,1-.76-.593c-1.131-1.78-2.268-3.556-3.4-5.337-.117-.186-.219-.286-.471-.231-.465.1-.944.141-1.412.227a15.827,15.827,0,0,0-5.067,1.648,6.383,6.383,0,0,0-1.377,1.081.993.993,0,0,0,0,1.491,4.25,4.25,0,0,0,.734.667,11.242,11.242,0,0,0,3.459,1.511A28.913,28.913,0,0,0,9047.47,3913.273Z" fill="#8a8a8a"/>
      <path id="Path_306" data-name="Path 306" d="M9047.487,3897.275a5,5,0,1,1,4.994-5.012A5.016,5.016,0,0,1,9047.487,3897.275Zm-.02-8a3,3,0,1,0,3.013,2.975A3.023,3.023,0,0,0,9047.468,3889.279Z" fill="#8a8a8a"/>
    </g>
  </g>
</svg>
