<svg xmlns="http://www.w3.org/2000/svg" xmlns:xlink="http://www.w3.org/1999/xlink" width="300.822" height="71.766" viewBox="0 0 300.822 71.766">
  <defs>
    <linearGradient id="linear-gradient" x1="4.922" y1="-3.287" x2="0.725" y2="2.62" gradientUnits="objectBoundingBox">
      <stop offset="0" stop-color="#6dc184"/>
      <stop offset="1" stop-color="#4092cf"/>
    </linearGradient>
    <linearGradient id="linear-gradient-2" x1="979.05" y1="-966.338" x2="64.842" y2="460.156" xlink:href="#linear-gradient"/>
    <linearGradient id="linear-gradient-3" x1="7.632" y1="-2.301" x2="1.269" y2="1.611" xlink:href="#linear-gradient"/>
    <linearGradient id="linear-gradient-5" x1="5.62" y1="-4.462" x2="1.407" y2="1.445" xlink:href="#linear-gradient"/>
    <linearGradient id="linear-gradient-6" x1="7.79" y1="-2.503" x2="1.427" y2="1.421" xlink:href="#linear-gradient"/>
  </defs>
  <g id="Group_489" data-name="Group 489" transform="translate(-4557.197 -69.807)">
    <g id="Group_485" data-name="Group 485">
      <g id="Group_476" data-name="Group 476">
        <g id="Group_475" data-name="Group 475">
          <path id="Path_454" data-name="Path 454" d="M4626.656,75.776l-6.037,14.805-1.2,2.941-3.074,7.524-.65-1.212a7.559,7.559,0,0,0-10.45-3.1h0l0,.008-.06.034c-.089.051-.178.1-.271.145l-.007,0a16.7,16.7,0,0,1-21.643-5.006l14.835-8.5a8.083,8.083,0,0,0,3-10.8l-.65-1.212,11.664,1.941Z" fill="url(#linear-gradient)"/>
          <path id="Path_455" data-name="Path 455" d="M4605.447,96.623a2.141,2.141,0,0,1-.2.123l0-.008Z" fill="url(#linear-gradient-2)"/>
          <path id="Path_456" data-name="Path 456" d="M4625.1,114.5l-1.688,10.851-2.53,16.224-14.329-6.238-3.658-1.593-6.471-2.82,1.173-.672a8.082,8.082,0,0,0,3-10.8h0l-.059.034c-.1-.16-.2-.336-.29-.5a17.7,17.7,0,0,1,4.672-22.052l.007,0c.093-.043.182-.094.271-.145l.06-.034,8.223,15.328a7.56,7.56,0,0,0,10.451,3.1Z" fill="url(#linear-gradient-3)"/>
          <path id="Path_457" data-name="Path 457" d="M4605.447,96.623a2.141,2.141,0,0,1-.2.123l0-.008Z" fill="url(#linear-gradient-2)"/>
          <path id="Path_458" data-name="Path 458" d="M4600.42,119.55l-14.9,8.535a7.805,7.805,0,0,0-2.894,10.428l.777,1.45-12.188-2.031L4557.2,135.6l6.037-14.805,1.243-3.037,3.029-7.428.777,1.449a7.3,7.3,0,0,0,10.093,2.991h0A16.622,16.622,0,0,1,4600.42,119.55Z" fill="url(#linear-gradient-5)"/>
          <path id="Path_459" data-name="Path 459" d="M4587.432,80.458l-1.217.7a8.029,8.029,0,0,0-2.977,10.726h0a.725.725,0,0,1-.077-.106c.1.153.188.314.274.475a17.714,17.714,0,0,1-4.911,22.238l-8.17-15.228a7.508,7.508,0,0,0-10.381-3.075l-1.217.7,1.734-11.126,2.484-15.948,14.329,6.238,3,1.308Z" fill="url(#linear-gradient-6)"/>
        </g>
      </g>
      <g id="Group_484" data-name="Group 484">
        <g id="Group_480" data-name="Group 480">
          <g id="Group_479" data-name="Group 479">
            <g id="Group_477" data-name="Group 477">
              <path id="Path_460" data-name="Path 460" d="M4588.336,105.773a3.8,3.8,0,0,0,.391,1.683l3.2-1.683v-3.709A3.651,3.651,0,0,0,4588.336,105.773Z" fill="#293e8d"/>
            </g>
            <g id="Group_478" data-name="Group 478">
              <path id="Path_461" data-name="Path 461" d="M4585.762,109.016l1.752-.921a5.231,5.231,0,0,1-.538-2.322,5.034,5.034,0,0,1,4.951-5.115v-2.03a7.033,7.033,0,0,0-6.916,7.145A7.313,7.313,0,0,0,4585.762,109.016Z" fill="#293e8d"/>
            </g>
          </g>
        </g>
        <g id="Group_483" data-name="Group 483">
          <path id="Path_462" data-name="Path 462" d="M4591.927,112.919a6.894,6.894,0,0,0,6.164-3.9q.122-.248.225-.5l-1.816-.778c-.049.123-.1.244-.161.362a5.134,5.134,0,0,1-.822,1.2v-1.982l-3.59-1.539-3.2,1.683a3.578,3.578,0,0,0,3.2,2.027,3.488,3.488,0,0,0,2.04-.66v1.611a4.785,4.785,0,0,1-2.04.454,4.935,4.935,0,0,1-4.413-2.793l-1.752.921A6.894,6.894,0,0,0,4591.927,112.919Z" fill="#29a7df"/>
          <g id="Group_482" data-name="Group 482">
            <g id="Group_481" data-name="Group 481">
              <path id="Path_463" data-name="Path 463" d="M4595.517,107.312v-1.539a3.651,3.651,0,0,0-3.59-3.709v3.709Z" fill="#2177b9"/>
              <path id="Path_464" data-name="Path 464" d="M4596.877,105.773a5.234,5.234,0,0,1-.377,1.96l1.816.778a7.329,7.329,0,0,0,.527-2.738,7.034,7.034,0,0,0-6.916-7.145v2.03A5.034,5.034,0,0,1,4596.877,105.773Z" fill="#2177b9"/>
            </g>
          </g>
        </g>
      </g>
    </g>
    <g id="Group_488" data-name="Group 488">
      <g id="Group_487" data-name="Group 487">
        <g id="Group_486" data-name="Group 486">
          <path id="Path_465" data-name="Path 465" d="M4636.953,80.939h3.787V83.3a4.742,4.742,0,0,1,4.162-2.671,5.166,5.166,0,0,1,4.212,2.211,10.049,10.049,0,0,1,1.868,6.355,10.085,10.085,0,0,1-1.843,6.323A5.211,5.211,0,0,1,4644.9,97.7a4.915,4.915,0,0,1-4.162-2.459v7.062h-3.787Zm9.27,11.543a5.423,5.423,0,0,0,.972-3.346,5.311,5.311,0,0,0-.972-3.285,2.716,2.716,0,0,0-4.585,0,5.5,5.5,0,0,0-.947,3.346,5.4,5.4,0,0,0,.947,3.285,2.719,2.719,0,0,0,4.585,0Z" fill="#fff"/>
          <path id="Path_466" data-name="Path 466" d="M4653.663,87.512h3.233v2.373a3.585,3.585,0,0,1,3.639-2.593v3.5h-.17q-3.468,0-3.469,4.155v4.352h-3.233Z" fill="#fff"/>
          <path id="Path_467" data-name="Path 467" d="M4663.43,97.777a5.934,5.934,0,0,1-1.746-4.352,5.872,5.872,0,0,1,1.767-4.331,6.149,6.149,0,0,1,10.573,4.331,5.867,5.867,0,0,1-1.766,4.329,6.328,6.328,0,0,1-8.828.023Zm6.615-2.066A3.633,3.633,0,0,0,4670,91.14a2.761,2.761,0,0,0-2.17-.969,2.718,2.718,0,0,0-2.17.969,3.635,3.635,0,0,0,.043,4.571,2.759,2.759,0,0,0,2.17.966A2.717,2.717,0,0,0,4670.045,95.711Z" fill="#fff"/>
          <path id="Path_468" data-name="Path 468" d="M4676.363,87.512h3.233V89.2a4.176,4.176,0,0,1,3.553-1.912,4.715,4.715,0,0,1,3.6,1.583,7.293,7.293,0,0,1,.021,9.077,4.767,4.767,0,0,1-3.617,1.563,4.4,4.4,0,0,1-3.553-1.761v5.057h-3.233Zm7.914,8.265a3.45,3.45,0,0,0,.83-2.4,3.385,3.385,0,0,0-.83-2.352,2.575,2.575,0,0,0-3.915,0,3.506,3.506,0,0,0-.808,2.4,3.445,3.445,0,0,0,.808,2.352,2.579,2.579,0,0,0,3.915,0Z" fill="#fff"/>
          <path id="Path_469" data-name="Path 469" d="M4691.872,97.865a6.032,6.032,0,0,1-1.7-4.44,6.256,6.256,0,0,1,1.575-4.331,5.232,5.232,0,0,1,4.063-1.8,5.04,5.04,0,0,1,4.212,1.935,7.147,7.147,0,0,1,1.341,4.463q0,.262-.042.879h-7.936a2.6,2.6,0,0,0,2.787,2.306,3.906,3.906,0,0,0,2.765-1.208l1.851,1.694a5.611,5.611,0,0,1-4.659,2.2A5.7,5.7,0,0,1,4691.872,97.865Zm6.34-5.386a3.279,3.279,0,0,0-.766-1.825,2.151,2.151,0,0,0-1.638-.681q-2.042,0-2.468,2.506Z" fill="#fff"/>
          <path id="Path_470" data-name="Path 470" d="M4703.764,87.512H4707v2.373a3.584,3.584,0,0,1,3.638-2.593v3.5h-.17q-3.468,0-3.468,4.155v4.352h-3.233Z" fill="#fff"/>
          <path id="Path_471" data-name="Path 471" d="M4713.189,95.952V90.369h-1.361V87.512h1.361V84.5h3.235v3.012h2.68v2.857h-2.68V95.4q0,1.145,1.042,1.144a3.228,3.228,0,0,0,1.6-.417v2.682a4.773,4.773,0,0,1-2.554.681Q4713.19,99.492,4713.189,95.952Z" fill="#fff"/>
          <path id="Path_472" data-name="Path 472" d="M4721.337,102.063l1.084-2.417a2.66,2.66,0,0,0,1.384.46,1.186,1.186,0,0,0,1.127-.768l-4.468-11.826h3.425l2.6,8.024,2.49-8.024h3.361l-4.383,12.067a6.318,6.318,0,0,1-1.468,2.55,3.326,3.326,0,0,1-2.276.748A5.434,5.434,0,0,1,4721.337,102.063Z" fill="#fff"/>
          <path id="Path_473" data-name="Path 473" d="M4738.806,96.96a12.707,12.707,0,0,1,0-13.523,5.94,5.94,0,0,1,4.98-2.806,6.108,6.108,0,0,1,5.252,3.218l-2.194,3.083a3.9,3.9,0,0,0-3.082-1.817,2.659,2.659,0,0,0-2.294,1.508,6.526,6.526,0,0,0-.911,3.56,6.608,6.608,0,0,0,.911,3.6,2.808,2.808,0,0,0,2.441,1.469,4.009,4.009,0,0,0,3.033-1.95l2.194,3.083q-2.2,3.353-5.4,3.355A5.87,5.87,0,0,1,4738.806,96.96Z" fill="#fff"/>
          <path id="Path_474" data-name="Path 474" d="M4751.243,83.424h3.234v5.935a4.125,4.125,0,0,1,3.34-1.891,3.6,3.6,0,0,1,2.851,1.164,4.706,4.706,0,0,1,1.021,3.211V99.47h-3.234V92.9q0-2.394-1.957-2.4-2.022,0-2.021,2.4V99.47h-3.234Z" fill="#fff"/>
          <path id="Path_475" data-name="Path 475" d="M4765.689,97.953a5.933,5.933,0,0,1-1.745-4.352,5.873,5.873,0,0,1,1.766-4.331,6.149,6.149,0,0,1,10.573,4.331,5.872,5.872,0,0,1-1.765,4.329,6.33,6.33,0,0,1-8.829.023Zm6.616-2.066a3.636,3.636,0,0,0-.043-4.571,2.759,2.759,0,0,0-2.169-.969,2.722,2.722,0,0,0-2.171.969,3.64,3.64,0,0,0,.043,4.571,2.759,2.759,0,0,0,2.17.966A2.722,2.722,0,0,0,4772.305,95.887Z" fill="#fff"/>
          <path id="Path_476" data-name="Path 476" d="M4777.154,87.688h3.277l1.83,7.144,2.148-7.187h2.788l2.169,7.208,1.873-7.165h3.212L4790.9,99.557h-2.915l-2.191-7.231-2.234,7.231h-2.893Z" fill="#fff"/>
          <path id="Path_477" data-name="Path 477" d="M4796.408,83.424h3.233v8.55l3.788-4.286h3.871l-4.34,4.638,4.49,7.144h-3.7l-2.978-4.815-1.128,1.232V99.47h-3.233Z" fill="#fff"/>
          <path id="Path_478" data-name="Path 478" d="M4808.874,95.953h3.447V99.47h-3.447Z" fill="#fff"/>
          <path id="Path_479" data-name="Path 479" d="M4815.788,97.953a6.449,6.449,0,0,1,0-8.683,6.015,6.015,0,0,1,8.83.264l-1.893,1.98a3.723,3.723,0,0,0-2.66-1.167,2.448,2.448,0,0,0-1.979.969,3.4,3.4,0,0,0-.786,2.285,3.438,3.438,0,0,0,.786,2.308,2.64,2.64,0,0,0,2.106.944,3.751,3.751,0,0,0,2.617-1.252l1.894,1.979a5.967,5.967,0,0,1-4.659,2.155A5.644,5.644,0,0,1,4815.788,97.953Z" fill="#fff"/>
          <path id="Path_480" data-name="Path 480" d="M4827.682,97.953a5.937,5.937,0,0,1-1.745-4.352,5.874,5.874,0,0,1,1.766-4.331,6.148,6.148,0,0,1,10.573,4.331,5.867,5.867,0,0,1-1.765,4.329,6.33,6.33,0,0,1-8.829.023Zm6.616-2.066a3.636,3.636,0,0,0-.042-4.571,2.761,2.761,0,0,0-2.17-.969,2.722,2.722,0,0,0-2.171.969,3.636,3.636,0,0,0,.044,4.571,2.755,2.755,0,0,0,2.169.966A2.719,2.719,0,0,0,4834.3,95.887Z" fill="#fff"/>
          <path id="Path_481" data-name="Path 481" d="M4840.616,87.688h3.234v1.671a4.141,4.141,0,0,1,3.361-1.891,3.3,3.3,0,0,1,3.213,1.868,4.719,4.719,0,0,1,3.745-1.868,3.627,3.627,0,0,1,2.829,1.1,4.628,4.628,0,0,1,1.021,3.231V99.47h-3.233V92.9q0-2.394-1.894-2.4-1.958,0-1.958,2.4V99.47H4847.7V92.9q0-2.394-1.893-2.4-1.959,0-1.958,2.4V99.47h-3.234Z" fill="#fff"/>
        </g>
      </g>
      <text id="موجود_ھر_جگہ" data-name="موجود ھر جگہ" transform="translate(4695.776 121.439)" fill="#fff" font-size="22.224" font-family="SegoeUI, Segoe UI"><tspan x="0" y="0">موجود ھر جگہ</tspan></text>
    </g>
  </g>
</svg>
