<svg xmlns="http://www.w3.org/2000/svg" xmlns:xlink="http://www.w3.org/1999/xlink" width="300.821" height="71.766" viewBox="0 0 300.821 71.766">
  <defs>
    <linearGradient id="linear-gradient" x1="4.922" y1="-3.287" x2="0.725" y2="2.62" gradientUnits="objectBoundingBox">
      <stop offset="0" stop-color="#6dc184"/>
      <stop offset="1" stop-color="#4092cf"/>
    </linearGradient>
    <linearGradient id="linear-gradient-2" x1="976.665" y1="-966.338" x2="64.687" y2="460.156" xlink:href="#linear-gradient"/>
    <linearGradient id="linear-gradient-3" x1="7.632" y1="-2.301" x2="1.269" y2="1.611" xlink:href="#linear-gradient"/>
    <linearGradient id="linear-gradient-5" x1="5.62" y1="-4.462" x2="1.407" y2="1.445" xlink:href="#linear-gradient"/>
    <linearGradient id="linear-gradient-6" x1="7.79" y1="-2.503" x2="1.427" y2="1.421" xlink:href="#linear-gradient"/>
  </defs>
  <g id="Group_410" data-name="Group 410" transform="translate(-6725.229 -69.807)">
    <g id="Group_406" data-name="Group 406">
      <g id="Group_397" data-name="Group 397">
        <g id="Group_396" data-name="Group 396">
          <path id="Path_400" data-name="Path 400" d="M6794.687,75.776l-6.037,14.805-1.2,2.941-3.074,7.524-.65-1.212a7.561,7.561,0,0,0-10.451-3.1h0l0,.008-.059.034c-.089.051-.179.1-.272.145l-.007,0a16.7,16.7,0,0,1-21.643-5.006l14.836-8.5a8.082,8.082,0,0,0,3-10.8l-.65-1.212,11.664,1.941Z" fill="url(#linear-gradient)"/>
          <path id="Path_401" data-name="Path 401" d="M6773.478,96.623a2.016,2.016,0,0,1-.2.123l0-.008Z" fill="url(#linear-gradient-2)"/>
          <path id="Path_402" data-name="Path 402" d="M6793.128,114.5l-1.687,10.851-2.531,16.224-14.328-6.238-3.659-1.593-6.47-2.82,1.172-.672a8.084,8.084,0,0,0,3-10.8h0l-.059.034c-.106-.16-.2-.336-.291-.5a17.7,17.7,0,0,1,4.672-22.052l.007,0c.093-.043.183-.094.272-.145l.059-.034,8.223,15.328a7.561,7.561,0,0,0,10.451,3.1Z" fill="url(#linear-gradient-3)"/>
          <path id="Path_403" data-name="Path 403" d="M6773.478,96.623a2.016,2.016,0,0,1-.2.123l0-.008Z" fill="url(#linear-gradient-2)"/>
          <path id="Path_404" data-name="Path 404" d="M6768.451,119.55l-14.9,8.535a7.806,7.806,0,0,0-2.894,10.428l.777,1.45-12.188-2.031-14.015-2.328,6.037-14.805,1.242-3.037,3.029-7.428.778,1.449a7.3,7.3,0,0,0,10.093,2.991h0A16.622,16.622,0,0,1,6768.451,119.55Z" fill="url(#linear-gradient-5)"/>
          <path id="Path_405" data-name="Path 405" d="M6755.463,80.458l-1.217.7a8.03,8.03,0,0,0-2.977,10.726h0a.656.656,0,0,1-.076-.106c.1.153.187.314.274.475a17.714,17.714,0,0,1-4.912,22.238l-8.169-15.228A7.51,7.51,0,0,0,6728,96.185l-1.217.7,1.734-11.126L6731,69.807l14.329,6.238,3,1.308Z" fill="url(#linear-gradient-6)"/>
        </g>
      </g>
      <g id="Group_405" data-name="Group 405">
        <g id="Group_401" data-name="Group 401">
          <g id="Group_400" data-name="Group 400">
            <g id="Group_398" data-name="Group 398">
              <path id="Path_406" data-name="Path 406" d="M6756.368,105.773a3.784,3.784,0,0,0,.391,1.683l3.2-1.683v-3.709A3.65,3.65,0,0,0,6756.368,105.773Z" fill="#293e8d"/>
            </g>
            <g id="Group_399" data-name="Group 399">
              <path id="Path_407" data-name="Path 407" d="M6753.794,109.016l1.751-.921a5.238,5.238,0,0,1-.538-2.322,5.035,5.035,0,0,1,4.951-5.115v-2.03a7.033,7.033,0,0,0-6.916,7.145A7.3,7.3,0,0,0,6753.794,109.016Z" fill="#293e8d"/>
            </g>
          </g>
        </g>
        <g id="Group_404" data-name="Group 404">
          <path id="Path_408" data-name="Path 408" d="M6759.958,112.919a6.9,6.9,0,0,0,6.164-3.9q.122-.248.225-.5l-1.815-.778c-.05.123-.1.244-.161.362a5.14,5.14,0,0,1-.823,1.2v-1.982l-3.59-1.539-3.2,1.683a3.579,3.579,0,0,0,3.2,2.027,3.493,3.493,0,0,0,2.041-.66v1.611a4.791,4.791,0,0,1-2.041.454,4.937,4.937,0,0,1-4.413-2.793l-1.751.921A6.893,6.893,0,0,0,6759.958,112.919Z" fill="#29a7df"/>
          <g id="Group_403" data-name="Group 403">
            <g id="Group_402" data-name="Group 402">
              <path id="Path_409" data-name="Path 409" d="M6763.548,107.312v-1.539a3.65,3.65,0,0,0-3.59-3.709v3.709Z" fill="#2177b9"/>
              <path id="Path_410" data-name="Path 410" d="M6764.909,105.773a5.263,5.263,0,0,1-.377,1.96l1.815.778a7.329,7.329,0,0,0,.527-2.738,7.034,7.034,0,0,0-6.916-7.145v2.03A5.035,5.035,0,0,1,6764.909,105.773Z" fill="#2177b9"/>
            </g>
          </g>
        </g>
      </g>
    </g>
    <g id="Group_409" data-name="Group 409">
      <g id="Group_408" data-name="Group 408">
        <g id="Group_407" data-name="Group 407">
          <path id="Path_411" data-name="Path 411" d="M6804.984,80.939h3.787V83.3a4.743,4.743,0,0,1,4.162-2.671,5.164,5.164,0,0,1,4.212,2.211,10.049,10.049,0,0,1,1.869,6.355,10.08,10.08,0,0,1-1.844,6.323,5.21,5.21,0,0,1-4.237,2.182,4.916,4.916,0,0,1-4.162-2.459v7.062h-3.787Zm9.271,11.543a5.423,5.423,0,0,0,.971-3.346,5.31,5.31,0,0,0-.971-3.285,2.716,2.716,0,0,0-4.586,0,5.507,5.507,0,0,0-.947,3.346,5.406,5.406,0,0,0,.947,3.285,2.72,2.72,0,0,0,4.586,0Z" fill="#231f20"/>
          <path id="Path_412" data-name="Path 412" d="M6821.694,87.512h3.234v2.373a3.584,3.584,0,0,1,3.638-2.593v3.5h-.17q-3.468,0-3.468,4.155v4.352h-3.234Z" fill="#231f20"/>
          <path id="Path_413" data-name="Path 413" d="M6831.461,97.777a5.933,5.933,0,0,1-1.745-4.352,5.873,5.873,0,0,1,1.766-4.331,6.149,6.149,0,0,1,10.573,4.331,5.872,5.872,0,0,1-1.765,4.329,6.33,6.33,0,0,1-8.829.023Zm6.616-2.066a3.636,3.636,0,0,0-.043-4.571,2.758,2.758,0,0,0-2.169-.969,2.721,2.721,0,0,0-2.171.969,3.64,3.64,0,0,0,.043,4.571,2.76,2.76,0,0,0,2.17.966A2.722,2.722,0,0,0,6838.077,95.711Z" fill="#231f20"/>
          <path id="Path_414" data-name="Path 414" d="M6844.394,87.512h3.233V89.2a4.179,4.179,0,0,1,3.553-1.912,4.713,4.713,0,0,1,3.6,1.583,7.293,7.293,0,0,1,.022,9.077,4.768,4.768,0,0,1-3.618,1.563,4.4,4.4,0,0,1-3.553-1.761v5.057h-3.233Zm7.914,8.265a3.453,3.453,0,0,0,.83-2.4,3.388,3.388,0,0,0-.83-2.352,2.574,2.574,0,0,0-3.914,0,3.5,3.5,0,0,0-.809,2.4,3.439,3.439,0,0,0,.809,2.352,2.578,2.578,0,0,0,3.914,0Z" fill="#231f20"/>
          <path id="Path_415" data-name="Path 415" d="M6859.9,97.865a6.033,6.033,0,0,1-1.7-4.44,6.262,6.262,0,0,1,1.575-4.331,5.232,5.232,0,0,1,4.063-1.8,5.039,5.039,0,0,1,4.212,1.935,7.141,7.141,0,0,1,1.341,4.463q0,.262-.042.879h-7.936a2.6,2.6,0,0,0,2.787,2.306,3.909,3.909,0,0,0,2.766-1.208l1.851,1.694a5.612,5.612,0,0,1-4.659,2.2A5.7,5.7,0,0,1,6859.9,97.865Zm6.341-5.386a3.293,3.293,0,0,0-.766-1.825,2.155,2.155,0,0,0-1.639-.681q-2.041,0-2.468,2.506Z" fill="#231f20"/>
          <path id="Path_416" data-name="Path 416" d="M6871.795,87.512h3.233v2.373a3.585,3.585,0,0,1,3.639-2.593v3.5h-.171q-3.467,0-3.468,4.155v4.352h-3.233Z" fill="#231f20"/>
          <path id="Path_417" data-name="Path 417" d="M6881.221,95.952V90.369h-1.362V87.512h1.362V84.5h3.234v3.012h2.681v2.857h-2.681V95.4q0,1.145,1.042,1.144a3.226,3.226,0,0,0,1.6-.417v2.682a4.772,4.772,0,0,1-2.553.681Q6881.222,99.492,6881.221,95.952Z" fill="#231f20"/>
          <path id="Path_418" data-name="Path 418" d="M6889.368,102.063l1.085-2.417a2.657,2.657,0,0,0,1.383.46,1.185,1.185,0,0,0,1.127-.768L6888.5,87.512h3.425l2.6,8.024,2.489-8.024h3.361l-4.382,12.067a6.34,6.34,0,0,1-1.468,2.55,3.331,3.331,0,0,1-2.277.748A5.434,5.434,0,0,1,6889.368,102.063Z" fill="#231f20"/>
          <path id="Path_419" data-name="Path 419" d="M6906.837,96.96a12.71,12.71,0,0,1,0-13.523,5.941,5.941,0,0,1,4.981-2.806,6.107,6.107,0,0,1,5.251,3.218l-2.194,3.083a3.9,3.9,0,0,0-3.082-1.817,2.656,2.656,0,0,0-2.293,1.508,6.518,6.518,0,0,0-.912,3.56,6.6,6.6,0,0,0,.912,3.6,2.806,2.806,0,0,0,2.44,1.469,4.009,4.009,0,0,0,3.033-1.95l2.195,3.083q-2.194,3.353-5.4,3.355A5.87,5.87,0,0,1,6906.837,96.96Z" fill="#231f20"/>
          <path id="Path_420" data-name="Path 420" d="M6919.275,83.424h3.233v5.935a4.129,4.129,0,0,1,3.34-1.891,3.6,3.6,0,0,1,2.851,1.164,4.709,4.709,0,0,1,1.022,3.211V99.47h-3.235V92.9q0-2.394-1.957-2.4-2.021,0-2.021,2.4V99.47h-3.233Z" fill="#231f20"/>
          <path id="Path_421" data-name="Path 421" d="M6933.72,97.953a5.937,5.937,0,0,1-1.745-4.352,5.874,5.874,0,0,1,1.766-4.331,6.149,6.149,0,0,1,10.573,4.331,5.866,5.866,0,0,1-1.765,4.329,6.329,6.329,0,0,1-8.829.023Zm6.616-2.066a3.636,3.636,0,0,0-.042-4.571,2.761,2.761,0,0,0-2.17-.969,2.722,2.722,0,0,0-2.171.969,3.636,3.636,0,0,0,.044,4.571,2.755,2.755,0,0,0,2.169.966A2.719,2.719,0,0,0,6940.336,95.887Z" fill="#231f20"/>
          <path id="Path_422" data-name="Path 422" d="M6945.185,87.688h3.277l1.83,7.144,2.148-7.187h2.788l2.17,7.208,1.872-7.165h3.212l-3.553,11.869h-2.914l-2.191-7.231-2.234,7.231H6948.7Z" fill="#231f20"/>
          <path id="Path_423" data-name="Path 423" d="M6964.439,83.424h3.233v8.55l3.788-4.286h3.872l-4.341,4.638,4.49,7.144h-3.7l-2.978-4.815-1.129,1.232V99.47h-3.233Z" fill="#231f20"/>
          <path id="Path_424" data-name="Path 424" d="M6976.9,95.953h3.447V99.47H6976.9Z" fill="#231f20"/>
          <path id="Path_425" data-name="Path 425" d="M6983.82,97.953a6.448,6.448,0,0,1,0-8.683,6.015,6.015,0,0,1,8.83.264l-1.894,1.98a3.72,3.72,0,0,0-2.66-1.167,2.448,2.448,0,0,0-1.979.969,3.4,3.4,0,0,0-.786,2.285,3.436,3.436,0,0,0,.786,2.308,2.641,2.641,0,0,0,2.107.944,3.751,3.751,0,0,0,2.617-1.252l1.893,1.979a5.966,5.966,0,0,1-4.659,2.155A5.642,5.642,0,0,1,6983.82,97.953Z" fill="#231f20"/>
          <path id="Path_426" data-name="Path 426" d="M6995.713,97.953a5.937,5.937,0,0,1-1.745-4.352,5.873,5.873,0,0,1,1.767-4.331,6.149,6.149,0,0,1,10.573,4.331,5.867,5.867,0,0,1-1.766,4.329,6.33,6.33,0,0,1-8.829.023Zm6.616-2.066a3.633,3.633,0,0,0-.042-4.571,2.761,2.761,0,0,0-2.17-.969,2.72,2.72,0,0,0-2.17.969,3.636,3.636,0,0,0,.043,4.571,2.757,2.757,0,0,0,2.17.966A2.718,2.718,0,0,0,7002.329,95.887Z" fill="#231f20"/>
          <path id="Path_427" data-name="Path 427" d="M7008.648,87.688h3.233v1.671a4.145,4.145,0,0,1,3.361-1.891,3.3,3.3,0,0,1,3.213,1.868,4.718,4.718,0,0,1,3.745-1.868,3.625,3.625,0,0,1,2.829,1.1,4.628,4.628,0,0,1,1.021,3.231V99.47h-3.233V92.9q0-2.394-1.894-2.4-1.957,0-1.957,2.4V99.47h-3.234V92.9q0-2.394-1.893-2.4-1.958,0-1.958,2.4V99.47h-3.233Z" fill="#231f20"/>
        </g>
      </g>
      <text id="موجود_ھر_جگہ" data-name="موجود ھر جگہ" transform="translate(6863.809 121.439)" fill="#231f20" font-size="22.224" font-family="SegoeUI, Segoe UI"><tspan x="0" y="0">موجود ھر جگہ</tspan></text>
    </g>
  </g>
</svg>
