<svg xmlns="http://www.w3.org/2000/svg" width="30" height="30.067" viewBox="0 0 30 30.067">
  <path id="Path_309" data-name="Path 309" d="M9038.675,3989.084a3.644,3.644,0,0,1,1.646.714c.066.057.138.11.2.172,1.351,1.349,2.705,2.692,4.047,4.05a2.83,2.83,0,0,1,.468,3.549,2.519,2.519,0,0,1-1.335,1.092,2.954,2.954,0,0,0-1.825,1.629,2.508,2.508,0,0,0-.116,1.69,9.913,9.913,0,0,0,2.244,3.94,13.606,13.606,0,0,0,4.266,3.393,3.811,3.811,0,0,0,2.22.527,2.7,2.7,0,0,0,2.293-1.682,3.108,3.108,0,0,1,1.255-1.642,2.766,2.766,0,0,1,3.276.285c.824.75,1.6,1.558,2.385,2.347.719.72,1.464,1.418,2.133,2.182a2.889,2.889,0,0,1,.124,3.515,5.112,5.112,0,0,1-.509.6c-.79.8-1.607,1.577-2.38,2.394a4.2,4.2,0,0,1-3.013,1.3,9.956,9.956,0,0,1-3.621-.622,24.5,24.5,0,0,1-6.362-3.4,41.364,41.364,0,0,1-8.6-8.274,26.323,26.323,0,0,1-4.333-7.643,10.107,10.107,0,0,1-.635-3.795,4.158,4.158,0,0,1,1.289-2.957q1.077-1.018,2.1-2.1a3.623,3.623,0,0,1,2.146-1.27Z" transform="translate(-9032.488 -3989.084)" fill="#8a8a8a"/>
</svg>
