<?xml version="1.0" standalone="no"?>
<!DOCTYPE svg PUBLIC "-//W3C//DTD SVG 1.0//EN" "http://www.w3.org/TR/2001/REC-SVG-20010904/DTD/svg10.dtd">
<svg xmlns="http://www.w3.org/2000/svg" xmlns:xlink="http://www.w3.org/1999/xlink" id="body_1" width="79" height="79">

<g transform="matrix(0.9986979 0 0 0.9986979 0 0)">
	<g transform="matrix(1 0 0 1 -6000.859 -75.042)">
		<g transform="matrix(1 0 0 1 6000.86 75.04)">
            <path transform="matrix(1 0 0 1 15 8)"  d="M49.102 24.551C 49.102005 31.330574 46.705063 37.117302 41.91118 41.91118C 37.117302 46.705063 31.330574 49.102005 24.551 49.102C 17.771431 49.102005 11.984704 46.705063 7.1908226 41.91118C 2.396941 37.117302 0 31.330574 0 24.551C 0 17.771431 2.396941 11.984704 7.1908226 7.1908226C 11.984704 2.396941 17.771431 0 24.551 0C 31.330574 0 37.117302 2.396941 41.91118 7.1908226C 46.705063 11.984704 49.102005 17.771431 49.102 24.551C 49.102005 24.836693 49.097015 25.1223 49.087044 25.407818" stroke="none" fill="#FFFFFF" fill-rule="nonzero" />
		</g>
		<g>
            <path d="M6050.948 127.3L6029.892 127.3C 6029.829 127.23384 6029.793 127.146355 6029.792 127.055C 6029.7075 125.828125 6029.7856 124.59542 6030.024 123.389C 6030.7437 120.67513 6033.1562 118.75324 6035.962 118.659C 6036.4707 118.642 6036.601 118.343994 6036.73 117.974C 6036.956 117.89 6037.09 118.062996 6037.23 118.173996C 6038.03 118.78999 6038.83 119.412994 6039.63 120.031C 6040.406 120.631 6040.413 120.631 6041.205 120.020996C 6042.0493 119.37399 6042.8843 118.715996 6043.731 118.073C 6043.8438 117.987 6043.955 117.79 6044.151 117.952995C 6044.313 118.631 6044.313 118.631 6045.0127 118.65299C 6047.7563 118.83317 6050.083 120.73687 6050.8027 123.39099C 6051.042 124.598045 6051.12 125.83144 6051.0347 127.05899C 6051.0356 127.14717 6051.005 127.23288 6050.948 127.3z" stroke="none" fill="#FEA964" fill-rule="nonzero" />
            <path d="M6043.417 87.883C 6044.0347 88.003716 6044.646 88.156586 6045.248 88.341C 6045.7417 88.50426 6046.2124 88.730095 6046.648 89.013C 6046.9214 89.30775 6046.951 89.75377 6046.7188 90.082C 6046.492 90.43283 6046.0845 90.622856 6045.67 90.571C 6043.4746 90.41144 6041.269 90.47342 6039.086 90.756C 6035.5737 91.54894 6032.9614 94.497894 6032.598 98.079994C 6032.5483 98.657 6032.533 99.230995 6032.532 99.80799C 6032.543 100.052315 6032.499 100.29598 6032.4033 100.52099C 6032.221 100.7704 6032.1333 101.076065 6032.1553 101.38399C 6032.164 102.57299 6032.1553 103.761986 6032.1553 104.95199C 6032.1675 105.143295 6032.1533 105.33539 6032.1143 105.52299C 6031.6543 106.652985 6030.914 107.63499 6030.3965 108.73199C 6029.8823 109.79635 6029.613 110.96203 6029.6064 112.14399C 6029.6064 112.56599 6029.6113 112.98799 6029.6064 113.41099C 6029.639 113.75108 6029.487 114.08263 6029.207 114.27902C 6028.9272 114.47542 6028.564 114.50634 6028.2554 114.359985C 6028.21 114.33769 6028.162 114.31929 6028.1133 114.304985C 6027.465 113.24613 6027.0737 112.0502 6026.971 110.81299C 6026.7544 108.63058 6027.322 106.44224 6028.5713 104.63999C 6029.4517 103.26265 6029.9077 101.657265 6029.8833 100.022995C 6029.8833 98.74 6029.8833 97.45699 6029.8833 96.173996C 6029.9844 92.19623 6032.822 88.81659 6036.722 88.02899C 6036.9224 87.99199 6037.1543 88.02899 6037.334 87.88299L6037.334 87.88299L6043.417 87.883z" stroke="none" fill="#4D4E59" fill-rule="nonzero" />
            <path d="M6036.813 117.984C 6036.803 117.993004 6036.788 117.999 6036.785 118.01C 6036.561 118.741005 6036.558 118.704 6035.7393 118.766C 6034.365 118.85546 6033.0625 119.408646 6032.0444 120.335C 6030.987 121.260284 6030.273 122.51645 6030.0195 123.899C 6029.9326 124.32384 6029.8896 124.75641 6029.8906 125.19C 6029.9004 125.89 6029.8906 126.599 6029.8906 127.304L6029.8906 127.304L6027.739 127.304C 6027.451 127.06689 6027.303 126.70029 6027.3457 126.33C 6027.3735 125.279 6027.3315 124.23 6027.36 123.174C 6027.361 120.931564 6028.5757 118.86537 6030.5347 117.774C 6030.697 117.674 6030.8726 117.596 6031.0415 117.508C 6031.2104 117.242004 6031.5073 117.208 6031.7676 117.121C 6032.279 116.95177 6032.8105 116.85384 6033.3486 116.83C 6033.9473 116.80896 6034.542 116.71835 6035.1206 116.560005C 6035.6846 116.93239 6036.2256 117.33846 6036.7407 117.77601C 6036.8096 117.82057 6036.8394 117.906296 6036.813 117.984z" stroke="none" fill="#FEBC7B" fill-rule="nonzero" />
            <path d="M6050.948 127.3C 6050.948 126.569 6050.969 125.837006 6050.948 125.107C 6050.9683 122.74635 6049.6636 120.573654 6047.5703 119.482C 6046.767 119.032036 6045.8667 118.7836 6044.9463 118.758C 6044.2085 118.735 6044.1084 118.653 6044.115 117.913C 6044.0864 117.85401 6044.1084 117.78283 6044.165 117.75C 6044.6543 117.31814 6045.1724 116.92085 6045.717 116.561C 6046.5645 116.74626 6047.424 116.87058 6048.2886 116.933C 6048.6924 116.99923 6049.0884 117.108864 6049.4697 117.26C 6049.6074 117.29618 6049.726 117.38437 6049.8 117.506004C 6051.6357 118.347015 6052.9595 120.01425 6053.363 121.993004C 6053.4536 122.40497 6053.4966 122.826126 6053.4907 123.248C 6053.482 124.248 6053.4697 125.248 6053.4956 126.248C 6053.548 126.642624 6053.401 127.037445 6053.1035 127.302L6053.1035 127.302L6050.948 127.3z" stroke="none" fill="#F9A057" fill-rule="nonzero" />
            <path d="M6035.191 116.619C 6034.534 116.86458 6033.837 116.98433 6033.1357 116.972C 6032.413 117.034485 6031.706 117.21699 6031.043 117.512C 6030.0312 116.78232 6029.1504 115.88667 6028.437 114.863C 6028.322 114.682 6028.224 114.491 6028.118 114.305C 6028.2183 114.158 6028.33 114.279 6028.4253 114.305C 6028.683 114.39158 6028.967 114.34535 6029.183 114.181496C 6029.4 114.01765 6029.5215 113.75733 6029.5083 113.486C 6029.4614 112.46624 6029.5244 111.44445 6029.6953 110.438C 6030.0537 109.11674 6030.6333 107.86571 6031.409 106.73801C 6031.6094 106.41901 6031.709 106.063 6031.8794 105.73801C 6031.9165 105.66401 6031.9424 105.602005 6032.0312 105.59301C 6032.206 105.76501 6032.16 106.00201 6032.1914 106.20801C 6032.564 109.023834 6034.3657 111.44703 6036.9546 112.614006C 6037.0894 112.65973 6037.2 112.756775 6037.2637 112.884C 6037.3257 113.32881 6037.3086 113.781044 6037.214 114.22C 6037 115.12728 6036.4517 115.92047 6035.6787 116.441C 6035.5513 116.571266 6035.3716 116.63674 6035.191 116.619z" stroke="none" fill="#42434D" fill-rule="nonzero" />
            <path d="M6049.8 117.51C 6048.9277 117.120834 6047.9834 116.92078 6047.028 116.923004C 6046.559 116.89824 6046.0977 116.7969 6045.6616 116.623C 6045.389 116.619316 6045.132 116.4983 6044.9556 116.291C 6043.9053 115.487976 6043.3794 114.17384 6043.5864 112.868004C 6043.683 112.71488 6043.8296 112.600266 6044.0015 112.54401C 6046.5957 111.31412 6048.363 108.82289 6048.6665 105.968C 6048.712 105.43155 6048.7207 104.89266 6048.6934 104.355C 6048.699 103.288345 6048.699 102.224014 6048.6934 101.162C 6048.6934 100.656006 6048.5093 100.450005 6048.0254 100.397C 6046.743 100.31096 6045.647 99.44259 6045.2695 98.214005C 6044.9795 97.395004 6044.6147 97.3 6043.906 97.757C 6041.6924 99.18686 6039.1846 100.096954 6036.57 100.41901C 6035.7183 100.5198 6034.8613 100.56323 6034.005 100.549C 6033.454 100.528 6032.905 100.493004 6032.356 100.438C 6032.4478 100.01109 6032.473 99.572624 6032.431 99.138C 6032.412 97.70121 6032.751 96.28227 6033.417 95.009C 6034.609 92.68282 6036.818 91.04576 6039.39 90.582C 6039.99 90.4667 6040.6006 90.413086 6041.212 90.422C 6042.543 90.432 6043.875 90.42799 6045.206 90.422C 6045.437 90.422 6045.663 90.480995 6045.887 90.487C 6046.1724 90.48219 6046.439 90.34231 6046.6045 90.109985C 6046.7705 89.87766 6046.8164 89.58045 6046.728 89.309C 6046.698 89.209 6046.681 89.109 6046.657 89.008995C 6048.722 90.160286 6050.199 92.13701 6050.7183 94.44399C 6050.879 95.117966 6050.956 95.80919 6050.9473 96.50199C 6050.9473 97.59199 6050.9634 98.68299 6050.9473 99.772995C 6050.901 101.6171 6051.425 103.430595 6052.4473 104.965996C 6053.521 106.580315 6054.027 108.50626 6053.8853 110.439995C 6053.755 112.89166 6052.61 115.1784 6050.725 116.75199C 6050.416 117.016 6050.1 117.259 6049.8 117.51z" stroke="none" fill="#42434D" fill-rule="nonzero" />
            <path d="M6043.727 114.291C 6044.0054 115.30883 6044.709 116.1572 6045.658 116.619C 6045.2017 117.04318 6044.7217 117.44179 6044.22 117.813C 6044.183 117.847 6044.147 117.882 6044.1113 117.913L6044.1113 117.913L6040.9614 120.333C 6040.827 120.49375 6040.628 120.58663 6040.4185 120.58663C 6040.209 120.58663 6040.01 120.49375 6039.8755 120.333C 6038.856 119.549 6037.835 118.76601 6036.8135 117.984C 6036.4175 117.628494 6036.002 117.29467 6035.5693 116.984C 6035.4355 116.873 6035.2593 116.803 6035.1914 116.623C 6036.1353 116.15674 6036.8345 115.309654 6037.1133 114.295C 6037.2793 114.185 6037.4365 114.275 6037.5874 114.326996C 6039.418 114.98697 6041.422 114.98697 6043.2524 114.326996C 6043.4 114.27 6043.561 114.181 6043.727 114.291z" stroke="none" fill="#FEDEB9" fill-rule="nonzero" />
            <path d="M6032.351 100.434C 6032.9126 100.3533 6033.4834 100.35769 6034.044 100.447C 6034.6694 100.487816 6035.155 101.009895 6035.15 101.637C 6035.216 102.377075 6035.239 103.1203 6035.2188 103.863C 6035.217 105.75264 6035.8877 107.58116 6037.112 109.020996C 6037.641 109.629845 6038.2417 110.17245 6038.901 110.63699C 6039.287 110.89952 6039.513 111.34018 6039.5015 111.80684C 6039.4897 112.2735 6039.2417 112.70222 6038.843 112.94499C 6038.586 113.119026 6038.2754 113.19563 6037.968 113.160995C 6037.675 113.15874 6037.395 113.04083 6037.189 112.83299C 6034.9785 111.91291 6033.265 110.09427 6032.478 107.83299C 6032.2227 107.11203 6032.0723 106.357925 6032.0312 105.593994C 6032.0312 104.145996 6032.037 102.69399 6032.0254 101.25099C 6031.995 100.94188 6032.116 100.63706 6032.351 100.434z" stroke="none" fill="#FEF2E3" fill-rule="nonzero" />
            <path d="M6037.189 112.833C 6037.4355 112.94058 6037.6943 113.01749 6037.959 113.062C 6039.706 113.493614 6041.539 113.4243 6043.248 112.862C 6043.376 112.815 6043.508 112.734 6043.648 112.834C 6043.636 113.32233 6043.6626 113.81083 6043.727 114.295C 6043.0337 114.539474 6042.321 114.725464 6041.596 114.851C 6040.3984 115.00739 6039.181 114.9179 6038.019 114.588C 6037.719 114.496994 6037.419 114.393 6037.1133 114.295C 6037.18 113.81069 6037.2056 113.321594 6037.189 112.833z" stroke="none" fill="#FED5A5" fill-rule="nonzero" />
            <path d="M6043.648 112.83C 6042.453 113.31046 6041.167 113.519165 6039.882 113.441C 6039.2246 113.42016 6038.5747 113.29214 6037.959 113.062004C 6038.554 113.12786 6039.1147 112.771576 6039.308 112.205C 6039.5283 111.68045 6039.35 111.0732 6038.8813 110.751C 6037.829 110.046684 6036.9434 109.12071 6036.287 108.038C 6035.5586 106.87311 6035.155 105.534485 6035.118 104.161C 6035.142 103.27925 6035.116 102.39682 6035.04 101.518005C 6034.975 100.9816 6034.571 100.548706 6034.04 100.44701C 6037.57 100.50986 6041.0366 99.50989 6043.99 97.577C 6044.658 97.144005 6045.0312 97.277 6045.29 98.017006C 6045.64 99.29474 6046.761 100.21039 6048.083 100.298004C 6048.6 100.350006 6048.8022 100.586006 6048.803 101.108C 6048.803 102.442 6048.8384 103.777 6048.7974 105.108C 6048.8174 108.39314 6046.888 111.377625 6043.8843 112.708L6043.8843 112.708L6043.648 112.83z" stroke="none" fill="#FEEAD1" fill-rule="nonzero" />
		</g>
	</g>
</g>
</svg>