<svg xmlns="http://www.w3.org/2000/svg" width="130" height="130" viewBox="0 0 130 130">
  <g id="Group_556" data-name="Group 556" transform="translate(-5912.455 -3508.734)">
    <path id="Path_618" data-name="Path 618" d="M6042.455,3549.359h-40.538v-40.625h40.538Zm-8.217-8.18v-24.218h-24.214v24.218Z"/>
    <path id="Path_619" data-name="Path 619" d="M5912.455,3638.734V3598.2h40.625v40.538Zm8.214-32.442v24.217h24.22v-24.217Z"/>
    <path id="Path_620" data-name="Path 620" d="M5961.205,3638.734v-8.107h16.186V3606.29h-16.1v-8.113h24.227v24.268h16.24v8.092H5985.58v8.2Z"/>
    <path id="Path_621" data-name="Path 621" d="M6042.455,3565.609h-8.107v8.061H6001.93v-8.028h7.976v-8.056h8.138v7.95h8.093v-8.052h16.318Z"/>
    <path id="Path_622" data-name="Path 622" d="M6009.955,3638.734v-24.293h24.3v7.977H6018.08v16.316Z"/>
    <path id="Path_623" data-name="Path 623" d="M6042.455,3589.984h-16.161v-8.125h16.161Z"/>
    <path id="Path_624" data-name="Path 624" d="M6026.205,3638.734v-8.125h16.25v8.125Z"/>
    <path id="Path_625" data-name="Path 625" d="M6042.455,3606.234h-8.038v-8.125h8.038Z"/>
    <path id="Path_626" data-name="Path 626" d="M5912.543,3508.792h40.471v40.467h-40.471Zm32.352,8.138h-24.232v24.21H5944.9Z"/>
    <path id="Path_627" data-name="Path 627" d="M5961.234,3589.906v-7.956H5945.01v7.93h-8.093v-16.1h7.977v-16.213h8.144v16.11h16.269v8.144h8.054v8.083Z"/>
    <path id="Path_628" data-name="Path 628" d="M5961.266,3533.147v-16.226h8.016v8.039h24.354v8.089h-8.024v8.114h-8.093v-8.016Z"/>
    <path id="Path_629" data-name="Path 629" d="M5985.609,3557.53v-8.109h8v16.112h-32.346v-8Z"/>
    <path id="Path_630" data-name="Path 630" d="M5912.548,3557.53h8.009v16.159h8.047v8.132h-8.012v8.1h-8.044Z"/>
    <path id="Path_631" data-name="Path 631" d="M6009.986,3606.156V3590.03h-8.079v-8.109h16.081v24.235Z"/>
    <path id="Path_632" data-name="Path 632" d="M5977.513,3516.771V3508.8H5993.6v7.972Z"/>
    <path id="Path_633" data-name="Path 633" d="M5993.617,3589.926h-7.972v-16.091h7.972Z"/>
    <path id="Path_634" data-name="Path 634" d="M6001.74,3614.3h-7.968v-16.091h7.968Z"/>
    <path id="Path_635" data-name="Path 635" d="M5969.273,3541.323v7.969h-7.967v-7.969Z"/>
    <path id="Path_636" data-name="Path 636" d="M5936.74,3565.553h-7.968v-7.968h7.968Z"/>
    <path id="Path_637" data-name="Path 637" d="M5961.259,3622.393v-7.964h7.968v7.964Z"/>
    <path id="Path_638" data-name="Path 638" d="M6026.115,3533.052h-7.968v-7.967h7.968Z"/>
    <path id="Path_639" data-name="Path 639" d="M5928.76,3622.393v-7.965h7.968v7.965Z"/>
    <path id="Path_640" data-name="Path 640" d="M5936.772,3525.073v7.97h-7.967v-7.97Z"/>
  </g>
</svg>
