<svg xmlns="http://www.w3.org/2000/svg" width="140.154" height="47" viewBox="0 0 140.154 47">
  <g id="Group_491" data-name="Group 491" transform="translate(-5828.279 -661.226)">
    <path id="Path_482" data-name="Path 482" d="M5839.573,674.376c.538.085,1.084.134,1.611.261a10.608,10.608,0,0,1,6.381,16.376c-.167.256-.369.49-.571.756.061.066.121.133.184.2l5.946,6.183a1.4,1.4,0,0,1,.282,1.792,1.369,1.369,0,0,1-2.046.335,3.667,3.667,0,0,1-.276-.265q-2.974-3.092-5.946-6.183a1.211,1.211,0,0,1-.123-.168c-.678.356-1.282.731-1.928,1.005a10.587,10.587,0,0,1-14.431-7.022,10.1,10.1,0,0,1,1.119-8.035,10.426,10.426,0,0,1,6.93-5c.487-.11.99-.156,1.485-.232Zm-.693,2.765a7.823,7.823,0,1,0,7.824,7.812A7.839,7.839,0,0,0,5838.88,677.141Z" fill="#fff"/>
    <text id="Search" transform="translate(5865.433 699.226)" fill="#fff" font-size="35" font-family="SegoeUI, Segoe UI"><tspan x="0" y="0">Search</tspan></text>
  </g>
</svg>
