<svg xmlns="http://www.w3.org/2000/svg" width="55.823" height="42.353" viewBox="0 0 55.823 42.353">
  <g id="Group_254" data-name="Group 254" transform="translate(-12103.368 -3344.348)">
    <rect id="Rectangle_212" data-name="Rectangle 212" width="55.822" height="42.353" transform="translate(12103.368 3344.348)" opacity="0.3"/>
    <path id="Path_281" data-name="Path 281" d="M12143.768,3362.76a3.836,3.836,0,0,0-.168.818,10.25,10.25,0,0,1-2.241,4.345,31.917,31.917,0,0,1-3.779,3.755c-1.732,1.509-3.479,3-5.22,4.5a1.46,1.46,0,0,1-2.1.011c-2.3-2.016-4.689-3.932-6.914-6.037a16.053,16.053,0,0,1-3.523-4.348,7.9,7.9,0,0,1,.518-8.6,6.6,6.6,0,0,1,8.11-2.188,7.122,7.122,0,0,1,2.71,2.243c.116.154.161.164.284,0a6.655,6.655,0,0,1,11.413.856,8.2,8.2,0,0,1,.864,2.845c.006.052-.021.118.051.147v.146c-.031.03-.021.07-.024.108s-.015.1.024.136v.584a.381.381,0,0,0,0,.293Z" fill="none" stroke="#fff" stroke-width="1"/>
  </g>
</svg>
